<?xml version="1.0" encoding="UTF-8"?><svg id="Layer_2" xmlns="http://www.w3.org/2000/svg" viewBox="0 0 32 32"><defs><style>.cls-1{fill:#c4223e;}</style></defs><g id="Layer_1-2"><path class="cls-1" d="m31.05,13.69l-2.74-2.74s-.04-.06-.04-.09v-3.87c0-1.8-1.47-3.27-3.27-3.27h-3.87s-.07-.01-.09-.04l-2.74-2.74c-1.27-1.27-3.35-1.27-4.62,0l-2.74,2.74s-.06.04-.09.04h-3.87c-1.8,0-3.27,1.47-3.27,3.27v3.87s-.01.07-.04.09l-2.74,2.74c-1.27,1.27-1.27,3.35,0,4.62l2.74,2.74s.04.06.04.09v3.87c0,1.8,1.47,3.27,3.27,3.27h3.87s.07.01.09.04l2.74,2.74c1.27,1.27,3.35,1.27,4.62,0l2.74-2.74s.06-.04.09-.04h3.87c1.8,0,3.27-1.47,3.27-3.27v-3.87s.01-.07.04-.09l2.74-2.74c1.27-1.27,1.27-3.35,0-4.62Z"/></g></svg>